<?xml version="1.0" encoding="UTF-8" standalone="no"?>
<svg width="512px" height="512px" viewBox="0 0 512 512" version="1.1" xmlns="http://www.w3.org/2000/svg" xmlns:xlink="http://www.w3.org/1999/xlink">
    <!-- Generator: Sketch 39.1 (31720) - http://www.bohemiancoding.com/sketch -->
    <g id="Orange" stroke="none" stroke-width="1" fill="none" fill-rule="evenodd">
        <g id="9---orange-(FF822E)-(8px)---icon" fill="#FF882E">
            <polygon id="I" points="357 307.439767 364.364039 310.565616 426.099557 165.125849 418.735518 162"></polygon>
            <path d="M338,340 C338,335.029437 342.029437,331 347,331 C351.970563,331 356,335.029437 356,340 C356,344.970563 351.970563,349 347,349 C342.029437,349 338,344.970563 338,340 Z" id="small-dot"></path>
            <polygon id="Combined-Shape" points="218.806838 286.759118 271.313848 162.446846 275.075456 153.519298 278.708132 162.500081 336.221842 307.707103 329.344858 310.386867 275.075453 175.179775 223.119229 297.455073 242.317869 345.073162 234.871824 348.344966 218.624052 308.034152 202.122023 346.87051 194.727442 343.767971 214.325382 297.369128 165.075453 175.179775 92.1220235 346.87051 84.7274417 343.767971 161.313848 162.446846 165.075456 153.519298 168.708132 162.500081 218.806838 286.759118"></polygon>
            <path d="M504,256 C504,119.033382 392.966618,8 256,8 C119.033382,8 8,119.033382 8,256 C8,392.966618 119.033382,504 256,504 C392.966618,504 504,392.966618 504,256 Z M0,256 C0,114.615104 114.615104,0 256,0 C397.384896,0 512,114.615104 512,256 C512,397.384896 397.384896,512 256,512 C114.615104,512 0,397.384896 0,256 Z" id="outer-circle"></path>
        </g>
    </g>
</svg>